<?xml version="1.0" encoding="UTF-8"?><svg id="Layer_1" xmlns="http://www.w3.org/2000/svg" viewBox="0 0 500 500"><path d="m379.83,250c16.56-8.83,32.32-20.16,45.88-33.7,49.1-49.01,39.81-115.37-11.63-155.62-51.68-40.44-121.45-25.73-154.25,21.81-3.48,5.05-6.77,10.26-9.83,15.59-3.07-5.33-6.35-10.54-9.83-15.59-32.8-47.54-102.57-62.25-154.25-21.81-51.44,40.25-60.72,106.61-11.63,155.62,13.56,13.53,29.31,24.87,45.88,33.7-16.56,8.83-32.32,20.16-45.88,33.7-49.09,49.01-39.81,115.37,11.63,155.62,51.68,40.44,121.45,25.73,154.25-21.81,3.48-5.05,6.77-10.26,9.83-15.59,3.07,5.33,6.35,10.54,9.83,15.59,32.8,47.54,102.57,62.25,154.25,21.81,51.44-40.25,60.72-106.61,11.63-155.62-13.56-13.53-29.31-24.87-45.88-33.7Z" style="fill:#fff;"/></svg>