<?xml version="1.0" encoding="UTF-8"?><svg id="Layer_1" xmlns="http://www.w3.org/2000/svg" viewBox="0 0 899 891"><path d="m154.31,325.34c6.1-18.7,22.71-29.06,37.76-30.93,13.45-1.67,25.12,4.54,35.21,1.48,6.57-1.99,8.88-6.01,9.63-9.06,1.31-5.36-1.82-10.58-7.2-14-7.65-4.86-41.56-10.29-71.67,15.02-23.99,20.16-27.28,63.34-2.17,78.68,13.2,8.07,30.49,6.14,45.8-1.47,10.63-5.28,19.98-14.59,25.3-22.87,13.47-20.97,12.33-31.59,4.78-32.71s-11.74,18.31-17.43,27.23c-10.85,17.03-25.72,27.35-41.17,26.63-15.3-.72-27.77-10.66-18.84-38Z"/><path d="m167.97,400.22c35.01-5.22,59.2-31.06,69.11-45.36,14.15-20.41,24.68-34.49,37.81-33.62,13.13.86,15.55,13.3,6.39,25.39s-42.32,35.58-59.59,42.14c-17.27,6.56-.63,5.72,15.05.54,20.15-6.66,48.77-14.86,75.37-17.1,26.6-2.25,61.58,2.05,85.58,16.05,24.01,13.99,17.04,31.3-1.54,28.54-18.58-2.76-29.78-11.51-44.52-19.5-14.74-7.98-47.14-17.68-108.12-2.48-60.98,15.2-96.19,28.73-137.63,22.29-40.86-6.35-68.37-31.95-66.94-68.07.72-18.06,13.27-26.14,24.46-25.78,15.13.49,19.94,15.85,20.42,27.93,1.14,28.95,29.42,57.18,84.13,49.03Z"/><path d="m387.31,258.57c6.8,10.42.7,22.45-11.09,25.05-6.27,1.38-14,4.37-15.81,9.53-1.86,5.31,1.63,12.92,8.48,15.54,10.38,3.97,25.81.8,39.95-6.55,7.37-3.83,15.19-8.45,20.58-12.51,11.03-8.32,28.69-9.71,33.98-2.17,7.96,11.35-7.89,31.65-38.1,37-20.28,3.59-38.36,13.64-36.36,27.06,1.49,9.97,12.26,20.07,28.71,15.4,13.7-3.88,19.71-11.67,19.75-20.78.02-4.31-4.51-6.22-2.57-12.67,2.37-7.88,17.69-7.3,16.53,5.4s-15.94,30.52-40.85,33.33c-16.74,1.89-45.66-2.18-47.05-19.28-1.12-13.79,10.69-21.81,23.31-26.32,7.83-2.8,17.64-4.6,27.89-5.37,26.34-1.99,36.92-13.26,37.89-20.98.85-6.73-6.1-10.83-19.26-6.48s-26.84,21.18-52.98,25.75c-25.35,4.44-44.43-2.64-47.9-19.01-5.07-23.95,17.78-39.37,29.31-43.91,9.18-3.61,20.85-5.27,25.58,1.98Z"/><path d="m515.52,221.2c-10.38,9.95-5.94,27.65,7.05,34.47,18.6,9.76,22.68,24.49,16.81,41.75-7.24,21.27-33.07,28.4-56.17,40.31-25.54,13.16-37.7,26.24-39.48,48.93-1.78,22.65,16.57,28.43,25.38,18.83,8.81-9.6-6.89-21.3-2.94-36.31,3.72-14.14,9.53-24.45,46.41-35.95,20.78-6.48,52.12-25.38,54.39-57.7,2.51-35.66-18.1-53.52-30.89-57.45-9.1-2.79-15.77-1.46-20.56,3.13Z"/><path d="m581.19,302.94c2.43-15.39,23.01-27.03,48.08-25.09,25.07,1.94,39.5,23.48,32.43,39.96-7.06,16.49-44.06,24.41-66.59,25.36-22.53.95-62.9,8.56-68.28,21.56s16.65,8.4,27.08,4.6c10.43-3.8,24.05-7.13,30.44,2.69,2.14,3.28,1.93,6.31,2.14,8.31.44,4.29,1.67,6.85,5.32,8.89,7.76,4.36,25.87.18,36.13-16.18,7.5-11.97,20.54-25.22,33.71-20.65,13.17,4.57,4.96,35.18-33.54,48.49-33.72,11.65-49.32-3.27-51.17-8.9-2.35-7.19-7.58-13.77-19.19-9.53-11.61,4.24-35.6,15.14-47.18,5.85-11.58-9.29-5.19-33.74,30.78-41.88,35.96-8.15,60-3.75,85.93-14.02,25.93-10.27,25.21-30.56,18.67-38.3-9.36-11.09-27.1-9.15-32.89-.17-2.89,4.49-1.72,9.96.83,16.01,2.27,5.39.66,11.73-5.32,14.74-6.33,3.19-15.61.86-21.07-4.02-5.48-4.9-7.14-12.37-6.29-17.73Z"/><path d="m714.39,247.83c-5.49-12.03,8.81-16.09,14.93-13.74,6.13,2.36,20.08,12.09,19.74,35.23s-15.11,58.19-8.64,87.75c6.47,29.56,24.43,60.91,57.98,58.11,33.55-2.8,27.63-34.95,19.97-44.61s-1.91-26.33,16.96-26.92c14.65-.46,24.92,13.04,25.64,28.7.65,14.11-11.81,53.44-63.53,53.4-58.36-.05-76.43-49.44-80.71-64.25-5.2-18-4.01-38.76-4.01-38.76,0,0-11.49-8.7-31.93,5.42-3.16,2.18-9.8,2.28-12.55-.31-3.36-3.16-2.09-9.64,3.73-12.68,10.59-5.54,29.55-7.64,43.12-4.58,0,0,4.74-11.63,7.19-19.89,0,0-16.9,6.89-32.77,1.58-9.62-3.22-18.21-17.7-10.96-23.73,3.92-3.26,9.02-2.04,12.05,1.77,2.59,3.25,2.29,9.52,5.3,12.2,7.93,7.04,23.75,2.64,28.16-.79,0,0,6.44-5.25,2.44-17.27-2.33-6.98-9.67-11.3-12.1-16.62Z"/><path d="m285.59,421.68c-32.59,7.6-51.29,21.4-51.65,33.45-.37,12.05,30.13,10.95,44.4-2.46,14.27-13.41,24.31-20.53,42.52-19.91,18.2.61,15.58,11.71,11.99,17.15-2.21,3.34-7.5,7.39-13.75,10.05-12.78,5.42-31.1,8.01-46.05,7.85-22.26-.25-47.06-3.31-64.18,9-7.5,5.39-6.78,11.86-.61,14.61,6.17,2.75,17.42,1.19,24.71-4.68,15.54-12.52,23.54-12.29,38.91-13.64,0,0,8.15,20.34,28.28,20.21,24.21-.16,30.71-14.19,29.66-19.07s-8.44-6.85-15.82-1.98c-7.38,4.88-9.68,11.86-21.49,11.07-9.61-.64-14.1-11.07-14.1-11.07,0,0,11.82.49,24.96-1.78,13.14-2.27,27.6-7.29,34.44-12.86,17.3-14.1,12.64-30.09-8.51-35.93-14.73-4.06-33.36-2.41-43.7,0Z"/><path d="m306.49,512.6s11.97-21.45,40.74-29.43c20.17-5.59,31.17,3.09,26.49,8.04s-28.13,4.97-39.67,9.9c-11.66,4.98-13.11,13.86-13.11,13.86,0,0,31.14,4.4,49.98-7.23,21.44-13.24,20.38-28.12,26.99-37.13,7.29-9.93,21.77-12.44,30.15-4.07,8.37,8.37,2.7,23.75-5.5,32.3-10.55,11-38.83,30.89-88.27,27.48-41.88-2.89-89.45-26.28-123.16-8.39-28.69,15.22-24.19,39.33-34.57,51.88-10.39,12.55-29.64,17.09-38.51,8.44s-6.16-39.32,21.42-59.07c26.23-18.78,64.69-21.42,91.96-16.01,27.26,5.41,55.07,9.42,55.07,9.42Z"/><path d="m304.88,517.21c-.35.15-.69.3-1.02.47-5.32,2.67-7.67,8.28-17,14-10.35,6.34-34.12,12.23-43.14,15.99-8.56,3.57-14.46,17.64,7.99,20.05,22.46,2.41,61.4-9.92,75.91-16.09,16.52-7.03,32.33-9.34,34.62-2.21,1.84,5.73-12.36,16.92-30.15,24.23-22.56,9.27-55.71,32.51-41.67,56.43,5.61,9.56,19.93,14.76,37.03,14.62,18.15-.15,38.84-5.64,48.36-16.76,20.64-24.12,6.02-47.02-12.06-47.24-10.15-.12-14.07,4.86-13.93,8.52s4.11,6.28,7.95,5.27c3.42-.9,4.53-3.85,6.84-5.15,3.28-1.84,7.32-1.5,10.49,2.34s6.41,16.63-4.48,27.34c-12.59,12.39-35.49,12.63-43.86,9.96-10.93-3.49-24.32-13.15-14.78-31.04,6.46-12.11,24.5-19.86,38.39-26.63,15.59-7.6,32.2-17.11,28.11-28.21s-35.44-2.47-63.44,7.6c-7.77,2.79-16.12,3.72-20.3,3.89-6.27.26-7.97-2.3-4.51-4.66,7.92-5.4,25.3-22.79,24.96-29.06s-10.32-3.66-10.32-3.66Z"/><path d="m496.61,432.05c-14.87,10.69-19.07,24.85-10.68,32.78,7.15,6.76,21.06,8.39,33.93-5.18,10.07-10.62,32.61-22.81,53.11-16.2,17.81,5.74,27.34,16.48,26.6,37-1.18,32.65-27.45,45.02-50.76,59.56-26.98,16.83-45.33,35.72-44.62,58.14,1.05,32.79,44.6,20.63,55.9,4.57,11.3-16.06.78-24.76-4.47-25.37-5.25-.62-12.43,3.78-15.34,13.42s-8.96,15.42-17.35,14.53c-8.39-.89-10.42-23.93,9.89-44.15,21.95-21.85,35.61-20.04,64.26-39.4,0,0,20.09-15.91,34.85-11.87s15.08,17.29,38.25,18.99c29.41,2.15,65.53-12.33,72.1-48.83,2.23-12.39-.82-20.58-4.43-24.69-11.68-13.3-28.66-6.68-29.59,6.27-.42,5.89,6.02,14.75,4.81,28.02-.94,10.35-13.7,25.56-33.86,29.61-7.29,1.47-15.57.3-19.92-1.57-12.2-5.23-13.18-14.18-22.14-19.03-10.01-5.41-20.38.41-20.38.41,0,0,18.66-18.4,5.45-47.87-10.92-24.37-41.65-38.52-71.86-36.53-28.3,1.86-43.75,10.21-53.73,17.39Z"/><path d="m505.21,494.18c-12.51-8.55-45.21-3.66-61.49,11.62-14.68,13.78-29.15,46.42-7.89,62.95,9.06,7.04,25.6,7.88,40.37,3.4,14.77-4.48,26.87-14.49,33.04-24.38,15.59-25.03,4.57-40.4-5.69-39.39-4.75.47-9.86,2.92-12.01,9.58-2.1,6.48-1.69,12.13-4.8,18.86-6.05,13.13-15.11,20.21-29.19,21.96-16.97,2.11-24.97-11.43-21.72-25.44,3.38-14.57,17.96-34.6,40.45-35.98,18.87-1.16,22.8,9.43,29.16,7.8,6.36-1.63,4.75-7.58-.23-10.99Z"/></svg>