<?xml version="1.0" encoding="UTF-8"?><svg id="Layer_1" xmlns="http://www.w3.org/2000/svg" viewBox="0 0 722.61 716.18"><path d="m231.62,258.36c4.48-11.73,11.2-24.44,5.85-37.24-3.68-8.8-18.64-13.51-30.78-3.38-12.14,10.13-9.83,34.54-9.38,44.16.55,11.81-7.63,9.48-7.63,9.48,0,0-2.01-1.3-5.52-3.75-2.85-1.98-8.12-4.54-12.21-5.43-14.96-3.26-36.54,1.9-63.58,43.56-16.65,25.64-22.52,57.64-21.22,75.66,1.24,17.13,4.89,31.76,20.32,38.9,34.21,15.81,68.43-40.53,75.12-61.78,3.24-10.28,5.88-20.84,10.04-16.93,4.16,3.9,5.46,52.82-10.93,71.3-16.29,12.34-34.64,35.83-41.28,71.05-6.37,33.79.68,62.08,30.35,58.79,19.88-2.2,37.19-24.47,44.59-47.45,12.86-39.9-1.56-74.59-3.82-88.66-3.82-23.8-.53-64.08,4.25-91.68,4.78-27.6,11.36-44.87,15.84-56.6Zm-65.46,84.7c-9.26,33.52-27.08,66.51-43.9,66.51-13.69,0-12.35-32.79-.77-70.5,6.7-21.81,17.74-40.13,27.04-50.85,6.78-7.82,12.71-10.79,15.08-11.38,17.64-4.39,11.8,32.7,2.55,66.22Zm38.02,107.13c-.27,15.51-13.33,81.41-32.5,81.53-19.59.12-7.97-62.5,6.37-87.73,8.07-14.19,12.03-17.93,17.46-18.27,7.36-.46,8.94,8.62,8.66,24.46Z"/><path d="m356.91,234.43c-21.99,18.57-27.79,38.51-33.48,41.36-5.69,2.84-9.85-1.3-12.03-11.82-2.41-11.6-11.51-22.07-19.7-24.12-19.56-4.89-42.61,8.22-59.21,60.2-19.79,61.96-5.94,96.92,17.75,99.1,26.32,2.42,49.85-44.69,56.01-72.04,5.41-24.02,11.49-32.07,15.21-30.1,3.72,1.97-1.83,9.12.32,24.63.94,6.75,5.62,23.77,25.36,22.07,22.57-1.94,54.81-45.22,60.98-74.18,11.03-51.77-26.91-55.63-51.21-35.11Zm-67.24,54.23c-1.98,13.97-19.59,100.85-35.65,100.12-16.06-.73-4.23-59.39,4.16-90.94,8.56-32.17,19.01-46.61,25.88-44.95,7.57,1.82,8.27,16.91,5.6,35.77Zm96.69-17.67c-12.28,34.91-30.86,65.35-42.46,61.72-14.14-4.42,3.75-49.69,15.82-70.53,9.58-16.53,18.57-27.86,26.34-27.44,9.11.49,6.79,17.82.31,36.25Z"/><path d="m519.69,359.37c.8-15.97-13.29-20.96-22.82-14.79-9.54,6.17-8.12,17.46-16.15,21.88-2.95,1.62-7.62,1.86-10.64-.17-3.89-2.61-6.02-9.31-5.91-19.43.19-16.54,8.89-43.38,29.51-93.57,7.18-17.47,21.79-46.86,30.54-65.78,9.28-20.06,13.82-34.15,11.92-41.97-2.65-10.91-15.52-10.54-24.91-5.28-9.09,5.1-16.54,19.06-20.8,37.62-5.44,23.7-11.7,53.74-18.67,78.93-11.03,39.89-16.12,55.16-16.12,55.16,0,0-.46-3.13-1.2-4.77-4.99-11-19.82-21.49-44.71-4.07-41.32,28.92-51.33,102.32-12.73,107.43,19.41,2.57,42.27-14.93,53.32-39.83,2.21-4.98,3.28-7.58,3.81-8.95-1.38,4.89,1.85,21.81,15.26,26.87,22.77,8.6,49.49-13.32,50.29-29.29Zm-83.29-5.11c-2.23,7.55-7.5,21.59-15.12,31.62-8.75,11.51-21.86,20.85-26.7,8.7-9.05-22.73,19.07-92.22,41.25-87.08,8.79,2.04,6.38,27.1.57,46.76Z"/><path d="m498.41,283.31c4.7-6.13,9.38-12.15,21.83-21.02,14.04-10.02,34.17-17.63,46.54-11.12,9.04,4.76,7.3,17.44,6.51,25.42-1.37,13.74-3.24,26.53,11.91,30.13,22.03,5.24,46.09-31.02,59.2-61.81,13.12-30.79,44.95-19.04,35.15,12.19-6.07,19.35-53.42,66.93-95.05,61.89-8.64-1.05-13.73-4.95-16.65-8.45-12.9-15.46,3.09-42.04-12.75-44.13-13.14-1.74-25.34,9.3-35.23,24.03-5.74,8.55-10.57,11.58-15.65,12.68-2.54.55-6.68.15-8.18-.71-6.01-3.44-5-9.48,2.37-19.09Z"/></svg>