<?xml version="1.0" encoding="UTF-8"?><svg id="Layer_1" xmlns="http://www.w3.org/2000/svg" viewBox="0 0 639.92 634.22"><path d="m333.19,194.64l3.03,15.5,53.31-23.15s-5.25,49.46.24,76.35c6.9,33.86,30.8,55.51,59.6,37.91,8.79-5.37,16.23-15.84,19.9-25.25,8.54-21.88,5.17-48.51,5.17-48.51l27.91-1.6-1.43-12.69-55.68,11.57.39,4.02,18.91-.9s1.7,18.08.15,31.67-6.86,30.68-22.33,38.44c-15.54,7.8-26.4-1.14-29.6-4.73-3.2-3.58-10.3-13.37-14.11-39.47-2.61-17.83.6-59.57,3.93-72.74l51.75-24.5-1.41-6.61-119.72,44.7Z"/><path d="m339.98,230.84s-25.88,0-47.16,20.43c-5.29,5.08-12.95,14.01-18.14,27.74-7.99,21.17-5.13,49.78,13.33,65.71,9.53,8.23,23.1,12.46,36.6,10.31,17.52-2.8,35.53-15.09,43.23-33.64,10.51-25.31-2-47.53-21.14-53.78-7.52-2.45-17.26-2.06-24.38,1.28-6.76,3.17-11.99,9.36-14.81,13.75-4.48,6.96-5.5,15.33-5.5,15.33l13.45,1.93s.75-22.54,16.67-26.29c4-.94,9.05-.16,13.26,2.07s7.95,6.2,9.75,8.66c4.72,6.44,9.02,20.86.41,38.27-5.21,10.54-14.4,19.43-24.08,23.86-6.3,2.89-12.47,3.73-18.29,3.03-13.39-1.61-34.12-14.51-34.6-42.19-.18-10.25,2.13-20.43,6.51-29.68,7.26-15.37,20.54-24.56,33.59-27.96,5.8-1.51,11.05-.89,14.4-.35,5.49.89,8.12,2.48,8.12,2.48l-1.21-20.94Z"/><path d="m141.55,153.31l4.5,18.34,39.03-36.13-13.63,66.6-14.86-14.22-2.28,3.8,15.27,17.06-17.52,82.72-20.64,9.53,7.4,11.11,45.45-29.66-2.07-4.04-23.33,10.32,16.39-74.65,71.7,78.32,8.27-5.84s-26.42-41.02-10.06-99.28c16.13-57.42,60.42-90.09,101.8-100.45l-6.01-18.92s-32.95,17.26-49.73,31.69c-16.53,14.21-40.18,41.1-50.4,75.98-7.48,25.53-13.82,56.91-1.97,93.92l-62.41-63.61,18.35-79.19-3.66-4.94-49.6,31.54Z"/><path d="m147.01,340.33l2.08,17.72,47.94-29.18-81.06,181.48,5.85,1.8,73.01-157.66s28.23-3.4,45.36,15.96c18.03,20.37-10.86,43.19-31.91,43.43-9.7.11-15.89-.37-15.89-.37l-.87,10.16s15.08-.12,30.33,5.16c5.12,1.77,12.29,5.71,18.45,10.3,7.94,5.91,15.22,14.6,16.87,25.97,2.13,14.71-3.64,32.65-18.32,46.36-26.63,24.88-58.9,15.85-71.17,1.68-10.92-12.61-2.24-40.8,18.51-45.01,6.03-1.22,10.81-.5,14.64.93,9.1,3.41,12.16,11.61,5.47,17.12-9.52,7.82-16.01,3.62-16.01,3.62l15.98,18.48s18.71-11.33,16.48-27.72c-2.22-16.39-23.9-24.37-43.59-16.73-19.69,7.64-33.04,41.9-9.81,59.46,25.98,19.65,79.43,13.11,96.28-24.39,17.91-39.84-24.27-71.31-45.52-76.03,0,0,34.68-6.98,36.7-29.48s-23.29-43.68-60-44.54l15.25-33.42-5.89-5.97-59.16,30.86Z"/><path d="m379.39,356.26l-.31,6.55s15.9-9.13,24.07-11.1l-21.9,132.8,15.33-3.42,20.31-132.69s19.84-6.55,44.84-4.77c11.17.8,24.08,4.35,35.04,12.65,32.7,24.78,17.33,90.4-23.42,109.5-7.16,3.36-13.99,4.75-19.88,4.83-13.73.17-21.08-3.41-23.26-9.13-1.73-4.53-.32-10.93,2.47-15.42,8.99-14.46,28.34-15.05,28.34-15.05l-13.84-20.17s-30.07,9.21-32.64,39.21c-2.13,24.77,23.48,31.85,45.15,27.13,26.96-5.87,59.6-31.21,63.83-71.26,4.23-40.05-19.44-68.86-76.14-68.12-22.69.3-38.58,5.52-49.59,9.8-12.29,4.78-18.39,8.66-18.39,8.66Z"/><path d="m372.87,546.67l32.29-18.97-1.43-2.81-13.81,6.36-63.45-148.26-11.79,3.65-30.38,141.25-15.51,4.14,1.17,10.73,49.02-19.05-1.48-4.66-15.23,3.65,8.34-61.48c9.04-4.12,19.27-7.08,28.86-9.62,1.31-.34,6.65-1.58,7.97-1.88l36.45,84.3-12.66,5.82,1.64,6.82Zm-43.48-100.72c-5.53,1.22-12.33,3.11-17.74,4.85l8.34-52.11,5.11-1.2,19.91,45.37c-3.82.64-11.86,2.25-15.62,3.08Z"/></svg>