<?xml version="1.0" encoding="UTF-8"?><svg id="Layer_1" xmlns="http://www.w3.org/2000/svg" viewBox="0 0 722.61 716.18"><path d="m99.65,298.36s.83,16.11-2.92,27.09c-2.69,7.86-8.66,27.51-22.28,30.24-11.94,2.39-13.02-11.79-13.02-11.79,0,0-1.51,18.52,16.71,17.36,18.22-1.16,43.64-23.44,55.82-46.27,0,0,6.38.13,10.22-.41,5.98-.84,9.83-2.27,9.83-2.27,0,0-1.3,20.71-19.54,47.49-11.6,17.03-44.17,53.81-86.24,61.88-16.78,3.22-32.63-5.03-26.96-17.54,3.6-7.95,14.37-17.18,28.45-20.75,30.34-7.7,57.87,2.32,57.87,2.32,0,0,4.14-2.92,5.34-4.66,0,0-44.85-8.17-71.64.65-14.35,4.72-22.05,8.44-30.91,16.57-6.49,5.96-9.79,13.95-5.75,21.96,5.57,11.04,25.24,16.76,49.68,10.31,39.62-10.46,68.77-39.67,83.25-51.99,15.53-13.23,43.83-42.29,57.68-52.52,0,0-14.26.03-12.91-11.21s11.24-26.21,11.24-26.21c0,0-31,18.82-57.15,18.15l6.06-13.19s-14.31,9.49-28.55,9.78c-12.02.25-14.3-4.97-14.3-4.97Z"/><path d="m190.67,279.79h0c10.96,4.9,15.88,13.08,18.03,27.8,3.32,22.69,2.09,48.42-1.84,64.12-2.44,9.75-11.6,28.89-32.39,42.74-21.58,14.36-44.35,20.62-44.35,20.62,0,0,32.4-8.1,52.83-21.1,21.8-13.87,32.9-34.14,37.95-47.28,6.7-17.41,11.68-45.56,11.68-45.56,7.45,2.02,19.27,3.82,32.43,3.96,36.96.4,97.05-18.16,123.67-53.36,25.29-33.44-15.96-46.86-39.78-27.31,0,0,25.33-10,29.16,4.36,3.4,12.71-9.12,30.72-31.61,44.67-23.02,14.28-48.02,31.7-91.43,24.78-11.1-1.77-21.2-8.59-21.2-8.59,0,0,1.84-24.15.66-38.38-.73-8.82-3.55-13.78-3.55-13.78,0,0-11.98,28.15-40.26,22.31Z"/><path d="m534.29,321.12s-4.98,28.15-11.68,45.56c-5.06,13.14-16.15,33.41-37.95,47.28-20.43,12.99-52.83,21.1-52.83,21.1,0,0,22.77-6.26,44.35-20.62,20.79-13.84,29.95-32.99,32.39-42.74,3.93-15.7,5.16-41.43,1.84-64.12-2.15-14.72-7.07-22.89-18.03-27.8h0c28.28,5.84,40.26-22.31,40.26-22.31,0,0,2.82,4.96,3.55,13.78,1.18,14.23-.66,38.38-.66,38.38,0,0,23.1,1.02,40.14-14.48,7.93-7.21,12.57-17.48,13.73-25.67,2.29-16.21-4.12-22.92-13.68-21.15-13.07,2.42-17.44,13.18-17.44,13.18,0,0,1.78-7.82,9.67-12.99,4.36-2.86,8.73-4.54,15.51-4.98,18.85-1.25,25.75,14.52,12.9,36.61-3.26,5.6-8.35,11.91-17.03,18.91-7.87,6.36-17.04,10.24-25.97,13.33-8.34,2.89-18.08,5.08-18.08,5.08l-.98,3.64Z"/><path d="m243.24,268.93s9.04,19.67,12.28,33.6c4.98,21.45,2.74,67.39,0,73.05l-2.73,5.66s23.7-18.96,31.21-19.14c7.51-.18,51.16-5.26,51.16-5.26,0,0,.1-19.91,15.27-33.49l1.57-57.59s-8.01,7.28-19.46.36c-10.29-6.22-23.21-16.38-23.21-16.38,5.93,7.36,9.89,10.17,13.09,27.74,3.75,20.57,6.98,47.64.78,62.15-2.33,5.45-5.92,10.41-17.57,14.11-11.01,3.5-22.04,3.36-22.04,3.36,0,0-2.03-45.88-.74-57.16.62-5.4,3.79-12.19,3.79-12.19,0,0-22.37,6.85-43.4-18.82Z"/><path d="m285.85,367.49s7.4,6.56,17.56,9.7c5.95,1.84,12.21,1.76,12.21,1.76,0,0-7.89,24.14-3.67,24.84,5.48.92,12.22,1.12,17.08.5,14.23-1.81,19.46-8.47,19.46-8.47,0,0,20.46,18.54,52.71,22.47,0,0-151.77-5.11-166.83,1.38,0,0,1.08-18.13-6.78-25.62,0,0,9.78,5.3,31.67,8.55,13.72,2.04,31.87,1.74,31.87,1.74,0,0,2.81-17.58-5.29-36.86Z"/><path d="m595.24,370.57s5.55,6.67,17.13,1.47c5.69-2.55,15.73-11.12,15.73-11.12,0,0-11.4,37.01-7.18,37.72,5.48.92,12.22,1.12,17.08.5,14.23-1.81,19.46-8.47,19.46-8.47,0,0,20.46,18.54,52.71,22.47,0,0-151.77-5.11-166.83,1.38,0,0,1.08-18.13-6.78-25.62,0,0,9.78,5.3,31.67,8.55,13.72,2.04,31.87,1.74,31.87,1.74,0,0-.04-9.29-4.86-28.62Z"/><path d="m376.44,288.07s-7.91,24.93,15.84,35.82c21.38,9.8,45.87,3.51,58.98-7.76,0,0,6.7-2.1,8.09,2.87,1.61,5.77-2.51,20.33-22.62,37.92-14.23,12.45-43.2,28.67-72.53,21.98-20.62-4.71-24.99-24.89-17.92-41.62,2.98-7.06,8.09-13.13,14.92-17.17,0,0-17.71,6.93-22.31,28.43-4.59,21.5,3.47,42.47,28.44,48.2,31.46,7.22,53.26-10.69,63.77-20.4,10.51-9.71,17.89-20.7,17.89-20.7,0,0,10.42-.69,17.49,10.56,5.13,8.16,5.76,23.71-2.1,31.58,0,0,21.33-2.15,22.59-19.85,1.2-16.89-10.26-22.09-23.6-24.9,0,0,16.43-16.69,35.64-25.63,0,0-6.54-1.08-8.82-7.04-2.75-7.22.6-14.75,8.82-22.35,0,0-21.88,14.87-33.76,14.98-7.92.07-5.14-2.42-5.14-2.42,0,0,19.89-15.91,25.08-29.15,0,0-15.07,8.96-27.04,6.33-7.03-1.55-7.81-8.27-7.81-8.27,0,0-19.35,29.5-39.29,35.99-17.99,5.86-26.88-1.69-30.85-6.77-6.36-8.15-3.77-20.64-3.77-20.64Z"/><path d="m643.48,339.59c9.52-7.71,12.53-9.55,26.43-25.99,13-15.37,27.68-37.22,37.65-52.29,0,0-10.59,9.46-23,14-15.53,5.69-41.24,12.64-66.71,5.43-12.69-3.59-14.68-10.73-14.68-10.73,0,0-3,16-18,26,0,0,48.73,10.41,76.68-7.95.4-.26.88-.39,1.3-.59,0,0-5.41,11.53-16.32,25.59-4.31,5.56-13.09,16.98-32.17,27.49-7.5,4.13-16.11,7.64-27.58,8.24-7.43.39-17.28-.47-20.69-8.75-4.95-12.03,8.92-20.34,20.73-24.26s25.71-4.43,25.71-4.43c0,0-26.23-.67-44.14,9.2-10.82,5.96-17.54,16.38-11.83,27.84,3.26,6.54,21.36,19.64,57.34,6.41,13.83-5.09,23.09-10.2,29.28-15.21Z"/></svg>