<?xml version="1.0" encoding="UTF-8"?><svg id="Layer_1" xmlns="http://www.w3.org/2000/svg" viewBox="0 0 722.61 716.18"><path d="m481.52,366.72c-9.36-13.21-27.05-17.89-37.68-19.25,15.12-27.98,25.54-57.74,24.5-70.35-1.87-22.81-23.28-14.58-27.03-12.86-3.7,1.7-16.87,8.98-30.01,7.79-13.15-1.19-11.74-7.1-11.74-7.1,0,0,21.41-18.16,13.87-37.16-7.54-18.99-29.29-18.83-37.85-.25-7.42,16.11-4.49,37.41,20.18,50.69,20.59,11.08,40.23,4.01,40.23,4.01,0,0,.81,16.24-1.95,32.53-2.71,15.99-9.77,59.66-33.08,64.33-9.84-.48-17.4-26.69-41.51-18.95-24.11,7.74-15.22,58.98,30.44,47.35,16.75-4.27,35.51-27.6,50.49-53.81,3.53,4.25,8.59,11.97,8.9,21.54.51,15.77,3.31,25.15,17.79,26.57,16.13,1.57,25.35-19.7,14.45-35.09Z"/><path d="m502.78,212c-8.05-1.01-18.02,5.78-19.51,27.84s15.75,54.17,19.82,93.94,5.69,107.22-21.31,127.22c-12.86,9.52-23,13-32,21-9.88,8.79-13.9,18.65-11.17,25.99,10.52,28.33,78.81,11.79,82.17-60.99,3.14-67.8-9.95-119.56-6.54-129.56s11.08-17.31,25.68-15.12,53.29-9.04,57.59-50.39-26.28-55.57-43.72-40.27-.72,39.85,6.47,42.93c7.2,3.08,7.58,30.07-14.14,35.98s-33.15,1.29-32.51-26.99c.31-13.75,2.9-24.55,2.15-33.58-1-12-4.78-16.97-13-18Z"/><path d="m250.23,322.33c-42,2.38-84.84-14.9-67.56-44.01,12.51-21.07-4.35-52.58-29.4-45.48-15.9,4.5-19.94,17.14-19.91,28.96.05,21.51,14.01,37.51,27.34,48.48,27.38,22.53,72.03,29.73,98.48,22.07,0,0,5.93,13.44-4.9,21.83-21.39,16.57-7.86,36.14,7.67,36.5,23.97.56,35.17-27.06,20.68-36.67-3.63-2.41-4.27-9.29-2.84-15,1-4,4.77-11.32,11-16,8-6,17.8-12.62,31.66-19.82,17.39-9.04,48.54-15.68,49.31,1.8.21,4.7-8.26,2.75-14.02,3.46-7.04.88-12.9,7.01-13.05,16.36-.18,11.02,12.61,29.33,38.27,10.85s9-72.66-43.68-51.64c-28.77,11.48-36.37,19.19-57.19,28.7-9.53,4.35-23.39,9.14-31.84,9.62Z"/><path d="m281.59,192.1c-9.88,7.58-12.03,17.65-8.27,30.45s24.48,31.81,11.46,51.45-44.35,16.8-51-22c-6-35,21.44-57.54,29.73-61.06,9.27-3.94,12.27-5.94,12.48-10.21.37-7.78-14.21-6.72-27.99,2.17-6.65,4.29-17.14,13.57-23.21,27.11-6.12,13.65-7.77,31.59-2.67,48.95,10.16,34.58,42.72,58.8,76.07,31.77,23.41-18.98,24.54-73.21,9.29-91.42-10.41-12.43-22.5-9.8-25.89-7.21Z"/><path d="m43.78,505c-10-21-10.44-54.93,14-81,30-32,64.15-27.61,72.97-22.01,17.38,11.04,43.71,15.63,52.23-4.26,8.53-19.89-15.06-63.37-85.54-27S9.01,478.48,25.78,514s59,51,102,37,66.12-46.23,85-71c16-21,31-44,31-44,0,0,1,69,1,86,0,30.08,36.92,36.95,70,25,36-13,49.38-46.55,51.4-67.8,2.6-27.2-15.4-47.2-35.4-41.2-8.67,2.6-16,7-17,18-.72,7.9,1,20,13,22,9.91,1.65,12.74-3.8,12.14,3.04-3.55,40.27-32.14,63.96-68.14,58.96-23.93-3.32,4.23-21.33,3-57-1-29-20-41-17.83-51.4,0,0,24.94,1.66,40.83-7.6,24-14,12.25-39.35-8.28-31.81-26.72,9.81-52.8,31.2-91.72,68.81-32.68,31.58-68.47,54.97-95,61-22,5-48.3,3.36-58-17Z"/><path d="m650.64,264.3c-30.46,32.43-63.53,99.41-74.54,151.99-7.28,34.79,7.97,35.02,12.06,18.3,4.09-16.73,13.06-50.83,30.88-72.61,22.96-28.05,48.88-38.53,69.49-63.99,11-13.59,21.47-42.54,4.97-50.61-12.04-5.89-29.9,3.12-42.86,16.93Z"/><ellipse cx="597.93" cy="480.17" rx="25.48" ry="19.79" transform="translate(-116.87 757.9) rotate(-60)"/></svg>