<?xml version="1.0" encoding="UTF-8"?><svg id="Layer_1" xmlns="http://www.w3.org/2000/svg" viewBox="0 0 722.61 716.18"><path d="m212.61,284.89h52.16v162.56h-84.52s47.27-10.06,58.23-66.54c2.98-15.38,3.6-28.49,2.67-39.41s-2.91-19.88-5.93-27.83c-4.95-13.06-13.64-23.47-22.61-28.78Z"/><path d="m54.62,284.89v124.8l74.01,1.94s-.97,3.67-6.5,11.1c-7.34,9.84-15.21,15.16-27.64,19.13-12.18,3.89-31.22,5.6-40.77,5.6h105.16v-37.87l44.67-.56-1.22-39.83s-4.71,5.67-20.73,12.21c-11.22,4.58-27.29,6.93-39.02,7.02-20.42.17-40.73-3.33-57.38-15.3-11.58-8.32-20.56-22.15-24.25-35.64-5.88-21.49-6.33-52.58-6.33-52.58Z"/><path d="m411.66,447.45h54.38v-161.89h-122.35s32.39,2.92,55.34,17.92,38.52,35.43,41.56,64.05c3.39,31.98-5.46,54.15-13.07,66.28-7.06,11.27-15.86,13.63-15.86,13.63Z"/><path d="m520.62,447.45h127.35s-.29-7.37.4-21.72c.2-4.19,1.63-8.17,6.06-8.69,3.5-.41,6.58,2.97,7.23,9.42,1.17,11.47-3.43,20.99-3.43,20.99h18.16v-162.56h-22.02s3.49,7.66,5.15,16.62c4.4,23.85,2.25,45.31,1.43,51.91-.36,2.87-.77,6.36-3.26,8.3s-4.67.26-5.55-2.57c-3.61-11.61-2.22-74.26-2.22-74.26h-58.53s11.9,2.63,21.97,12.85c10.65,10.81,16.43,28.85,17.19,49.2,1.22,32.53-11.08,56.39-27.91,73.52-19.25,19.6-48.93,26.99-82.02,26.99Z"/><path d="m490.63,284.89h73.67v48.37l-28.92-.16c-12.81,12.29-12.65,44.23,2.4,59.15,15.05,14.93,33.46,9.07,33.46,9.07,0,0-6.74.93-16.07-4.17-4.56-2.5-9.33-6.99-12.5-12.89-7.55-14.04-6.82-38.09,1.49-45.47h55.04v27.11s-25.51-2.44-26.41,9.85c-.91,12.29,18.56,14.62,25.03,13.72v20.37s-49.39,9.28-78.63-2.31c-6.64-2.64-13.91-8.34-19.4-15.84-10.26-14.02-12.57-38.87-12.74-58.04-.26-29.27,3.58-48.75,3.58-48.75Z"/><path d="m337.14,311.92c-30.33,0-54.92,27.44-54.92,61.28s24.59,61.28,54.92,61.28,54.92-27.44,54.92-61.28-24.59-61.28-54.92-61.28Zm12.49,53.63c-9.07,0-16.43-7.36-16.43-16.43s7.36-16.43,16.43-16.43,16.43,7.36,16.43,16.43-7.36,16.43-16.43,16.43Z"/><path d="m67.32,284.89s-.52,30.55,9.2,50.25c30.16,61.11,107.19,31.37,107.19,31.37v-81.62h-116.38Zm81.66,46c-9.07,0-16.43-7.36-16.43-16.43s7.36-16.43,16.43-16.43,16.43,7.36,16.43,16.43-7.36,16.43-16.43,16.43Z"/><circle cx="217.57" cy="346.02" r="16.7"/><circle cx="417.38" cy="369.19" r="16.7"/></svg>