<?xml version="1.0" encoding="UTF-8"?><svg id="Layer_1" xmlns="http://www.w3.org/2000/svg" viewBox="0 0 722.61 716.18"><path d="m395.89,193.76l-13.75-10.79c19.17-24.44,14.27-48.88,4.93-57.69-4.97-4.69-13.47-6.72-23.9-5.7-11.19,1.09-23.87,5.54-35.71,12.54-22.31,13.18-36.35,34.48-36.49,34.7l-14.65-9.54c.66-1.01,16.45-24.97,42.24-40.2,31.36-18.53,63.71-20.34,80.49-4.5,17.09,16.12,20.58,50.9-3.17,81.19Z"/><polygon points="446.14 186.41 342.74 208.01 344.7 166.43 327.24 165.61 325.07 211.7 218.38 233.99 221.95 251.1 449.71 203.52 446.14 186.41"/><path d="m500.3,132.26l-17.43,1.29c5.74,77.66-26.91,134.59-59.38,161.98-36.42,30.72-73.88,31.19-96.43,20.61-22.52-10.57-21.26-36.85-19.09-49.73l80.11-16.14-3.45-17.13-91.61,18.46c-6.23,19.97-10.22,63.88,26.9,80.5,10.31,4.62,23.01,7.56,37.1,7.56,23.59,0,51.07-8.26,77.74-30.76,35.76-30.17,71.76-92.41,65.54-176.63Z"/><path d="m252.34,397.86c-.73,24.9-11.58,46.48-29.79,59.2-16.2,11.32-36.08,14.29-54.54,8.13-9.57-3.19-15.62-8.93-19.36-15.65l55.17-21.96-6.47-16.24-53.79,21.41c-.9-7.93-.15-15.61.76-21.12l63.51-23.69-6.11-16.38-72.39,27h-.02c-6.71,22.72-8.41,69.35,33.16,83.21,8.15,2.72,16.51,4.06,24.82,4.06,15.9,0,31.61-4.91,45.26-14.45,22.78-15.92,36.36-42.54,37.25-73.02l-17.47-.51Z"/><polygon points="300.59 487.76 203.09 533.24 204.69 496.05 187.22 495.3 185.24 541.57 100.1 581.29 107.49 597.13 307.98 503.6 300.59 487.76"/><rect x="313.1" y="363.39" width="17.48" height="190.92"/><path d="m609.33,357.98l-16.71,5.14c.22.72,21.31,72.36-20.82,146.24-32.66,57.27-77.24,63.76-94.89,63.9-.22,0-.43,0-.65,0-22.27,0-41.83-8.83-49.96-22.59-12.09-20.46-7.69-47.19-6.4-53.55l149.65-59.58-6.47-16.24-62.82,25.01c.51-1.09,1.01-2.19,1.51-3.33,8.9-20.32,11.26-37.66,7-51.54-3.9-12.7-13.01-21.88-27.09-27.29-23.36-8.97-57.4,4.28-70.24,12.11-24.47,14.93-32.9,28.26-33.78,29.73l14.96,9.05c.07-.11,7.13-11.17,27.92-23.85,4.91-2.99,14.7-7.47,26.16-10.26,11.8-2.87,22-3.03,28.7-.45,8.92,3.43,14.37,8.69,16.64,16.08,5.77,18.77-9.36,47.77-17.24,59.89l-124.32,49.5,6.47,16.24,44.18-17.59c-1.37,13.75-1.15,35.91,10.11,54.97,11.39,19.28,36.24,31.18,64.99,31.18.26,0,.53,0,.8,0,20.68-.16,72.79-7.56,109.95-72.72,46.01-80.68,23.33-156.83,22.35-160.03Z"/></svg>