<?xml version="1.0" encoding="UTF-8"?><svg id="_ᄌ_목_어_음_-_2023년_7ᄋ_ᆯ_16일_16_Image" xmlns="http://www.w3.org/2000/svg" viewBox="0 0 2360 923.67"><path d="m362.15,91.4c-17.85,2.56-43.09,10.47-53.79,41.28-6.28,18.09-4.68,45.52,1.04,59.52,7.08,17.33,25.42,26.99,42.85,28.65,23.81,2.27,35.81-9.05,42.23-20.01,6.36-10.86,5.07-25.6,2.73-31.62-8.68-22.36-12.29-46.83,3.82-54.71,14.54-7.11,28.52,9.52,59.64,2.17,33.88-8.01,42.59,1.45,44.17,12.48,1.58,11.03-2.21,46.06-62.61,89.15-60.4,43.09-102.86,79.6-121.92,106.1,0,0-75.42-11.96-133.59-6.22-23.17,2.29-50.37,9.95-64.54,19.99-18.64,13.2-28.03,33.55-22.61,50.16,6.67,20.44,25.92,26.7,45.17,23.28,17.75-3.16,27.85-16.82,45.65-29.67,31.81-22.97,83.73-16.03,83.73-16.03,0,0-89.43,60.48-131.91,170.76-23.94,62.17-19.13,141.93,15.9,197.93,35.88,57.36,115.79,83.01,190.83,56.52,121.62-42.94,206.09-188.45,168.99-329.32-18.17-68.99-67.17-94.01-114.35-91.19-39.44,2.35-74.17,22.56-103.11,61.56-36.03,48.57-35.52,95.54-26.24,124.44,10.32,32.16,37.41,21.96,41.06,1.04,3.52-20.2-6.69-45.05-7.33-57.45-.76-14.7-.54-39.4,14.54-62.85,14.01-21.79,35.22-41.17,61.32-48.33,51.77-14.21,118.85,11.56,119.4,139.51.62,142.12-134.51,264.61-219.62,233.16-114.66-42.37-112.05-273.33,51.99-391.56,0,0,28.32-16.18,76.39-10.6,23.01,2.67,53.95,5.72,74.64,4.44,72.99-4.52,111.26-37.95,100.63-64.32-11.71-29.04-53.93-17.02-91.56,9.25-55.8,38.95-130.18,17.09-130.18,17.09,0,0,20.23-65.03,104.6-105.44,35.91-17.2,66.99-36.58,89.1-54.94,22.69-18.84,40.11-47.97,26.63-65.29-22.49-28.89-70.18-1.38-116.84-.55-50.84.91-75.63-12.83-106.84-8.34Z" style="fill:#fff;"/><path d="m632.42,339.21c1.74-33.14,15.37-70.06,100.05-131.28,51.12-36.96,68.65-72.13,66.28-84.22-2.99-15.18-13.74-11.89-40.76-8.84-27.02,3.05-40-9.07-53.59.34-12.53,8.68-1.74,32.07-1.15,43.35s-.7,42.99-39.23,44.87-52.1-39.69-42.57-72.14c9.78-33.32,35.17-40.06,51.21-42.54,30.47-4.71,56.64,9.54,96.32,9.96,26.39.27,52.96-10.34,73.69-9.57,10.44.39,20.71,2.81,26.1,12.65,6.69,12.23-1.52,34.18-23.42,50.3-20.31,14.95-63.62,28.68-94.76,55.28-68.22,58.26-36.17,95.06-31.82,131.39,2.96,24.75-8.72,57.87-41.87,56.69-42.4-1.51-45.37-39.47-44.48-56.26Z" style="fill:#fff;"/><path d="m935.88,131.82c-5.57,20.04-7.63,41.53-34.75,45-24.33,3.11-50.97-9.93-62.39,9.65-5.76,9.87-4.67,25.19,2.07,33.03,7.47,8.68,21.91,10.19,33.19.1,19.74-17.67,31.95-19.84,33.29-8.74.66,5.42-3.01,19.62-10.12,32.47-7.74,14.01-16.47,26.36-26.2,36.46-11,11.43-16.71,23.77-15.82,39.25.9,15.66,10.55,33.58,33.8,32.41,27.02-1.35,33-22.87,35.52-50.03,2.62-28.26-2.55-68.01,19.14-97.63,19.96-27.26,41.28-41.56,57.86-60.26,17.77-20.05,29.94-44.08,24.19-61.13-11.1-32.95-57.3-28.78-74.32,2.02-8.75,15.84-10.7,30.27-15.47,47.41Z" style="fill:#fff;"/><path d="m760.47,227.91c-8.82,4.13-18.72,14.31-8.13,18.92,5.7,2.48,11.67-.41,17.37,2.67,9.57,5.17,16.49,15.23,12.06,35-1.98,8.86,1.18,28.18,28.65,28.18,22.13,0,36.18-25.85,29.75-48.88-12.17-43.63-58.22-45.92-79.7-35.88Z" style="fill:#fff;"/><path d="m424.85,865.38c-15.27-23.92.5-54.24,87.31-109.6,91.29-58.22,273.22-128.08,457.24-176.15,184.93-48.3,225.62-116.27,225.62-116.27,0,0,42.52-94.95,87.25-144.42,46.21-51.11,94.54-131.11,73.57-173.54-10.65-21.56-43.19-2.4-86.08-6.74-26.37-2.67-53.84-5.3-64.16,7.71-20.97,26.46,19.05,52.26-11.02,83.8-31.03,32.54-95.19,10.37-94.55-51.28.65-62.64,18.22-87.89,66.52-92.09,36.6-3.18,58.78,23.2,134.66,15.22,75.88-7.99,126.44-32.85,152.82.22,11.58,14.52,7.45,49.4-5.37,77.9-19.93,44.3-63.09,89.24-94.16,115.91-51.05,43.83-139.37,146.23-146.99,262.8-7.62,116.57,53.28,225.23,5.27,263.33-48,38.1-108.95-12.95-91.43-119.62,17.52-106.67,58.7-200.64,58.7-200.64,0,0-59.4,54.23-187.02,92.84-141.87,42.92-248.94,89.04-345.95,161.31-94.26,70.21-122.57,106.73-164.82,119.12-9.89,2.9-23.13,4.59-30.74,4.02-10.38-.78-21.56-5.78-26.69-13.8Z" style="fill:#fff;"/><path d="m1421.66,335.67c-23.61.36-52.36,4.65-64.83,27.16-12.1,21.84-10.85,48.08,3.57,68.29,20.62,28.89,50.98,30.93,71.16,23.93,21.49-7.46,24.93-27.77,22.84-40.09-3.05-18.05-15.23-18.79-23.37-24.83-7.48-5.55-9.23-13.09-7.4-17.21,3.33-7.51,19.14-9.81,34.57-7.02,30.57,5.53,61.07,11.12,79.8,9.13,44.66-4.75,77.99-10.82,65.47,17.06-7.56,16.84-27.38,52.19-63.08,80.96-50.99,41.11-108.64,82.3-147.55,124.77-35.39,38.62-62.44,82.46-69.72,126.42-9.34,56.37,3.84,103.87,41.52,127.4,24.36,15.22,58.69,18.05,90.46,10.19,40.23-9.95,83.37-31.61,101.8-78.18,39.29-99.26-18.67-138.29-47.02-129.3-28.35,8.99-40.1,49.78-18.67,83.67,21.44,33.88,14.11,66.07-1.38,87.12-22.39,30.43-96.06,42.1-126.15.07-30.09-42.02-34.5-144.54,79.21-219.57,44.84-29.59,111.56-63.09,177.96-103.45,53.32-32.41,96.83-69.55,114.64-94.65,18.55-26.14,20.45-51.92,12.77-66.02-8.71-15.98-27.63-22.68-52.56-19.63-30.25,3.69-115.53,30.68-177,26.05-61.47-4.63-65.61-12.74-97.04-12.26Z" style="fill:#fff;"/><path d="m1736.28,106.22c-31.04-28.12-116.61,22.15-150.87,10.76-21.38-7.1-24.93-45.16-49.64-39.57-21.73,4.92-34.13,23.88-36.61,63.24-2.48,39.36-17.79,156.67,23.63,170.11,12.93,4.2,21.66.77,29.19-3.78,12.54-7.59,22.53-20.99,47.75-23.63,40.35-4.22,63.94,5.62,81.94-40.77,18-46.39,85.66-108.25,54.63-136.37Zm-80.65,120.02c-15.52,19.91-40.21,30.57-74.4,29.9-25.86-.51-27.36-32.24-26.39-54.87,1.45-33.94,15.41-53.52,35.82-58.37,66.35-15.8,113.19-41.67,123.61-26.85,9.78,13.9-43.87,91.26-58.64,110.21Z" style="fill:#fff;"/><path d="m1814.35,54.2c-23.43,15.22-33.25,35.79-39.42,65.89-6.16,30.1-7.25,85.22-38.8,115.32-31.55,30.1-14.6,70.38,13.67,59.31,30.87-12.09,17.19-61.89,46.53-91.22,19.12-19.12,39.16-10.52,78.69-8.34,39.53,2.18,71.49-28.51,50.41-52.28-22.95-25.87-59.33-8.36-87.76,6.23-29.72,15.25-25.76-9.46-9.07-19.22s62.88-33.2,51.13-64.91c-11.04-29.81-48.95-21.45-65.38-10.77Z" style="fill:#fff;"/><path d="m1959.35,61.68c-21.77,15.29-13.24,39.51,7.03,54.03,9.44,6.76,20.07,11.76,28.23,24.62,7.26,11.46,6.71,24.07-1.22,36.17-10.01,15.26-43.07,32.15-62.52,63.92-19.44,31.77-19.1,70,23.35,63.43,42.45-6.57,62.3-5.78,85.72,2.19,9.45,3.22,27.27,7.19,43.85,6.69,27.64-.84,50.96-22.78,41.87-48.59-8.14-23.11-30.16-19.79-47.98-8.81-12.73,7.84-20.64,21.04-32.08,24.7-11.88,3.79-61.14,7.36-71.15-15.3-7.37-16.67,23.35-60.35,33.57-75.74,56.21-84.69,93.08-52.34,147.01-56.49,41.21-3.17,42.96-43.57,24.25-52.6-18.71-9.03-40.98,0-72.27,12.91s-44.74,10.85-66.14-9.36c-25.87-24.42-64.34-33.81-81.51-21.75Z" style="fill:#fff;"/><path d="m1881.06,328.1c-58.88,11.11-96.15,34.26-95.57,62.03.62,29.91,40.14,42.25,85.46,18.84,38.05-19.66,57.19-61.02,133.77-58.33,68.92,2.41,127.52,45.87,173.62,25.38,52.47-23.32,68.46-70.43,48.7-91.57-19.76-21.14-48.88-16.01-64.04,18.91-15.16,34.92-22.8,53.23-52.21,52.31-29.41-.92-149.21-42.77-229.74-27.57Z" style="fill:#fff;"/><path d="m1789.63,438.17c-42.88,10.01-70.12,46.74-58.9,84.96,11.22,38.22,56.54,61,81.81,39.01,31.97-27.82-5.67-52.07,5.26-76.19,4.57-10.09,13.39-16.76,24.7-19.35,19.12-4.39,43.55-4.52,86.1-2.65,53.07,2.33,73.4-1.72,105.07-8.64,50.63-11.07,50.62,40.25-41.09,75.38-67.56,25.88-205.81,70.2-225.43,179.52-6.36,35.43,2.09,63.55,18.23,83.7,33.66,42.01,99.37,47.63,136.91,15.7,52.07-44.28,27.4-123.33-18.02-109.48-25.19,7.68-28.81,36.77-26.29,54.63,3.47,24.6,19.99,42,2.33,48.84-30.49,11.82-73.51,11.41-90.08-24.18-16.57-35.59,3.44-112.54,82.52-155.55,80.34-43.7,187.01-35.91,260.24-102.48,32.03-29.12,40.19-61.38,34.42-85.26-10.02-41.49-64.81-31.41-101.75-22.8-41.35,9.64-54.12,21.09-134.65,27.38-80.52,6.29-100.58-12.07-141.39-2.54Z" style="fill:#fff;"/><path d="m865.88,365.22c-31.97-10.61-74.79-7.84-119.23,17.4-65.23,37.06-112.76,135.78-75.04,191.27,52.18,76.74,219.08,1.47,224.7-97.56,2.87-50.43-56.16-66.95-95.67-40.95-35.5,23.36-3.85,40.69,9.75,27.6,13.6-13.08,25.96-28.51,45.73-28.15,18.14.33,30.76,15.88,12.36,51.09-30.72,58.77-114.04,122.59-167.19,88.81-33.1-21.03-9.82-86.97,35.52-128.13,15.26-13.85,39.91-26.14,72.02-34.78,8.69-2.34,23.77-3.19,32.53-2.54,10.59.78,20.89,3.22,26.84,4.12,16.01,2.44,19.09-7.17,20.93-14.43,3.19-12.6-8.05-28.69-23.25-33.74Z" style="fill:#fff;"/><path d="m1094.13,281.5c-28.61,1.14-62.03,17-90.23,52.33-41.4,51.87-37.53,149.67,13.85,169.76,73.74,28.84,157.03-52.6,132.86-137.94-12.31-43.46-72.65-38.11-91.35-5.15-18.7,32.96,11.75,36.34,18.83,21.01,7.08-15.33,10.79-28.34,26.7-34.28,14.59-5.45,30.87-.23,26.36,35.29-7.54,59.3-77.58,136.76-111.64,105.89-21.47-19.46-19.66-66.18-.57-102.76,7.96-15.26,22.24-32.58,43.09-46.84,6.45-4.41,18.07-10.2,25.26-12.41,8.69-2.68,17.63-3.88,22.64-4.99,13.5-2.99,13.18-12.08,12.55-18.79-1.1-11.65-14.74-21.67-28.34-21.13Z" style="fill:#fff;"/></svg>